<svg width="48" height="47" viewBox="0 0 48 47" fill="none" xmlns="http://www.w3.org/2000/svg">
<rect x="-1" width="52" height="47" rx="2" fill="white"/>
<mask id="mask0_1366_310" style="mask-type:alpha" maskUnits="userSpaceOnUse" x="-1" y="0" width="52" height="47">
<rect x="-1" width="52" height="47" rx="2" fill="white"/>
</mask>
<g mask="url(#mask0_1366_310)">
<rect x="-1" width="52" height="47" fill="#043CAE"/>
<path fill-rule="evenodd" clip-rule="evenodd" d="M23.2491 10.0484L25 9.39946L26.751 10.0484L26.2381 7.83279L26.751 5.61719L25 6.26612L23.2491 5.61719L23.762 7.83279L23.2491 10.0484ZM23.2491 41.3817L25 40.7328L26.751 41.3817L26.2381 39.1661L26.751 36.9505L25 37.5995L23.2491 36.9505L23.762 39.1661L23.2491 41.3817ZM37.381 25.0661L35.6301 25.7151L36.1429 23.4995L35.6301 21.2839L37.381 21.9328L39.1319 21.2839L38.6191 23.4995L39.1319 25.7151L37.381 25.0661ZM10.8682 25.7151L12.6191 25.0661L14.37 25.7151L13.8572 23.4995L14.37 21.2839L12.6191 21.9328L10.8682 21.2839L11.381 23.4995L10.8682 25.7151ZM35.7223 17.2328L33.9713 17.8817L34.4842 15.6661L33.9713 13.4505L35.7223 14.0995L37.4732 13.4505L36.9604 15.6661L37.4732 17.8817L35.7223 17.2328ZM12.5269 33.5484L14.2778 32.8995L16.0288 33.5484L15.5159 31.3328L16.0288 29.1172L14.2778 29.7661L12.5269 29.1172L13.0397 31.3328L12.5269 33.5484ZM31.1905 11.4984L29.4396 12.1473L29.9524 9.93172L29.4396 7.71612L31.1905 8.36506L32.9415 7.71612L32.4286 9.93172L32.9415 12.1473L31.1905 11.4984ZM17.0586 39.2828L18.8096 38.6339L20.5605 39.2828L20.0477 37.0672L20.5605 34.8516L18.8096 35.5005L17.0586 34.8516L17.5715 37.0672L17.0586 39.2828ZM35.7223 32.8995L33.9713 33.5484L34.4842 31.3328L33.9713 29.1172L35.7223 29.7661L37.4732 29.1172L36.9604 31.3328L37.4732 33.5484L35.7223 32.8995ZM12.5269 17.8817L14.2778 17.2328L16.0288 17.8817L15.5159 15.6661L16.0288 13.4505L14.2778 14.0995L12.5269 13.4505L13.0397 15.6661L12.5269 17.8817ZM31.1905 38.6339L29.4396 39.2828L29.9524 37.0672L29.4396 34.8516L31.1905 35.5005L32.9415 34.8516L32.4286 37.0672L32.9415 39.2828L31.1905 38.6339ZM17.0586 12.1473L18.8096 11.4984L20.5605 12.1473L20.0477 9.93172L20.5605 7.71612L18.8096 8.36506L17.0586 7.71612L17.5715 9.93172L17.0586 12.1473Z" fill="#FFD429"/>
</g>
</svg>
