<svg width="48" height="47" viewBox="0 0 48 47" fill="none" xmlns="http://www.w3.org/2000/svg">
<rect x="-1" width="52" height="47" rx="2" fill="white"/>
<mask id="mask0_1337_334" style="mask-type:alpha" maskUnits="userSpaceOnUse" x="-1" y="0" width="52" height="47">
<rect x="-1" width="52" height="47" rx="2" fill="white"/>
</mask>
<g mask="url(#mask0_1337_334)">
<path fill-rule="evenodd" clip-rule="evenodd" d="M51 0H-1V3.13333H51V0ZM51 6.26667H-1V9.4H51V6.26667ZM-1 12.5333H51V15.6667H-1V12.5333ZM51 18.8H-1V21.9333H51V18.8ZM-1 25.0667H51V28.2H-1V25.0667ZM51 31.3333H-1V34.4667H51V31.3333ZM-1 37.6H51V40.7333H-1V37.6ZM51 43.8667H-1V47H51V43.8667Z" fill="#D02F44"/>
<rect x="-1" width="22.2857" height="21.9333" fill="#46467F"/>
<g filter="url(#filter0_d_1337_334)">
<path fill-rule="evenodd" clip-rule="evenodd" d="M3.95239 4.69948C3.95239 5.56473 3.39807 6.26615 2.71429 6.26615C2.03051 6.26615 1.4762 5.56473 1.4762 4.69948C1.4762 3.83423 2.03051 3.13281 2.71429 3.13281C3.39807 3.13281 3.95239 3.83423 3.95239 4.69948ZM8.90477 4.69948C8.90477 5.56473 8.35045 6.26615 7.66667 6.26615C6.98289 6.26615 6.42858 5.56473 6.42858 4.69948C6.42858 3.83423 6.98289 3.13281 7.66667 3.13281C8.35045 3.13281 8.90477 3.83423 8.90477 4.69948ZM12.6191 6.26615C13.3028 6.26615 13.8571 5.56473 13.8571 4.69948C13.8571 3.83423 13.3028 3.13281 12.6191 3.13281C11.9353 3.13281 11.381 3.83423 11.381 4.69948C11.381 5.56473 11.9353 6.26615 12.6191 6.26615ZM18.8095 4.69948C18.8095 5.56473 18.2552 6.26615 17.5714 6.26615C16.8877 6.26615 16.3333 5.56473 16.3333 4.69948C16.3333 3.83423 16.8877 3.13281 17.5714 3.13281C18.2552 3.13281 18.8095 3.83423 18.8095 4.69948ZM5.19048 9.39948C5.87426 9.39948 6.42858 8.69806 6.42858 7.83281C6.42858 6.96757 5.87426 6.26615 5.19048 6.26615C4.5067 6.26615 3.95239 6.96757 3.95239 7.83281C3.95239 8.69806 4.5067 9.39948 5.19048 9.39948ZM11.381 7.83281C11.381 8.69806 10.8266 9.39948 10.1429 9.39948C9.45908 9.39948 8.90477 8.69806 8.90477 7.83281C8.90477 6.96757 9.45908 6.26615 10.1429 6.26615C10.8266 6.26615 11.381 6.96757 11.381 7.83281ZM15.0952 9.39948C15.779 9.39948 16.3333 8.69806 16.3333 7.83281C16.3333 6.96757 15.779 6.26615 15.0952 6.26615C14.4115 6.26615 13.8571 6.96757 13.8571 7.83281C13.8571 8.69806 14.4115 9.39948 15.0952 9.39948ZM18.8095 10.9661C18.8095 11.8314 18.2552 12.5328 17.5714 12.5328C16.8877 12.5328 16.3333 11.8314 16.3333 10.9661C16.3333 10.1009 16.8877 9.39948 17.5714 9.39948C18.2552 9.39948 18.8095 10.1009 18.8095 10.9661ZM12.6191 12.5328C13.3028 12.5328 13.8571 11.8314 13.8571 10.9661C13.8571 10.1009 13.3028 9.39948 12.6191 9.39948C11.9353 9.39948 11.381 10.1009 11.381 10.9661C11.381 11.8314 11.9353 12.5328 12.6191 12.5328ZM8.90477 10.9661C8.90477 11.8314 8.35045 12.5328 7.66667 12.5328C6.98289 12.5328 6.42858 11.8314 6.42858 10.9661C6.42858 10.1009 6.98289 9.39948 7.66667 9.39948C8.35045 9.39948 8.90477 10.1009 8.90477 10.9661ZM2.71429 12.5328C3.39807 12.5328 3.95239 11.8314 3.95239 10.9661C3.95239 10.1009 3.39807 9.39948 2.71429 9.39948C2.03051 9.39948 1.4762 10.1009 1.4762 10.9661C1.4762 11.8314 2.03051 12.5328 2.71429 12.5328ZM6.42858 14.0995C6.42858 14.9647 5.87426 15.6661 5.19048 15.6661C4.5067 15.6661 3.95239 14.9647 3.95239 14.0995C3.95239 13.2342 4.5067 12.5328 5.19048 12.5328C5.87426 12.5328 6.42858 13.2342 6.42858 14.0995ZM10.1429 15.6661C10.8266 15.6661 11.381 14.9647 11.381 14.0995C11.381 13.2342 10.8266 12.5328 10.1429 12.5328C9.45908 12.5328 8.90477 13.2342 8.90477 14.0995C8.90477 14.9647 9.45908 15.6661 10.1429 15.6661ZM16.3333 14.0995C16.3333 14.9647 15.779 15.6661 15.0952 15.6661C14.4115 15.6661 13.8571 14.9647 13.8571 14.0995C13.8571 13.2342 14.4115 12.5328 15.0952 12.5328C15.779 12.5328 16.3333 13.2342 16.3333 14.0995ZM17.5714 18.7995C18.2552 18.7995 18.8095 18.0981 18.8095 17.2328C18.8095 16.3676 18.2552 15.6661 17.5714 15.6661C16.8877 15.6661 16.3333 16.3676 16.3333 17.2328C16.3333 18.0981 16.8877 18.7995 17.5714 18.7995ZM13.8571 17.2328C13.8571 18.0981 13.3028 18.7995 12.6191 18.7995C11.9353 18.7995 11.381 18.0981 11.381 17.2328C11.381 16.3676 11.9353 15.6661 12.6191 15.6661C13.3028 15.6661 13.8571 16.3676 13.8571 17.2328ZM7.66667 18.7995C8.35045 18.7995 8.90477 18.0981 8.90477 17.2328C8.90477 16.3676 8.35045 15.6661 7.66667 15.6661C6.98289 15.6661 6.42858 16.3676 6.42858 17.2328C6.42858 18.0981 6.98289 18.7995 7.66667 18.7995ZM3.95239 17.2328C3.95239 18.0981 3.39807 18.7995 2.71429 18.7995C2.03051 18.7995 1.4762 18.0981 1.4762 17.2328C1.4762 16.3676 2.03051 15.6661 2.71429 15.6661C3.39807 15.6661 3.95239 16.3676 3.95239 17.2328Z" fill="url(#paint0_linear_1337_334)"/>
</g>
</g>
<defs>
<filter id="filter0_d_1337_334" x="1.4762" y="3.13281" width="17.3334" height="16.666" filterUnits="userSpaceOnUse" color-interpolation-filters="sRGB">
<feFlood flood-opacity="0" result="BackgroundImageFix"/>
<feColorMatrix in="SourceAlpha" type="matrix" values="0 0 0 0 0 0 0 0 0 0 0 0 0 0 0 0 0 0 127 0" result="hardAlpha"/>
<feOffset dy="1"/>
<feColorMatrix type="matrix" values="0 0 0 0 0 0 0 0 0 0 0 0 0 0 0 0 0 0 0.06 0"/>
<feBlend mode="normal" in2="BackgroundImageFix" result="effect1_dropShadow_1337_334"/>
<feBlend mode="normal" in="SourceGraphic" in2="effect1_dropShadow_1337_334" result="shape"/>
</filter>
<linearGradient id="paint0_linear_1337_334" x1="1.4762" y1="3.13281" x2="1.4762" y2="18.7995" gradientUnits="userSpaceOnUse">
<stop stop-color="white"/>
<stop offset="1" stop-color="#F0F0F0"/>
</linearGradient>
</defs>
</svg>
