<svg width="24" height="25" viewBox="0 0 24 25" fill="none" xmlns="http://www.w3.org/2000/svg">
<path d="M22 11.0102V13.0702C22 13.6202 21.56 14.0702 21 14.0902H19.04C17.96 14.0902 16.97 13.3002 16.88 12.2202C16.82 11.5902 17.06 11.0002 17.48 10.5902C17.85 10.2102 18.36 9.99023 18.92 9.99023H21C21.56 10.0102 22 10.4602 22 11.0102Z" fill="#017189"/>
<path d="M20.47 15.591H19.04C17.14 15.591 15.54 14.161 15.38 12.341C15.29 11.301 15.67 10.261 16.43 9.52102C17.07 8.86102 17.96 8.49102 18.92 8.49102H20.47C20.76 8.49102 21 8.25102 20.97 7.96102C20.75 5.53102 19.14 3.87102 16.75 3.59102C16.51 3.55102 16.26 3.54102 16 3.54102H7C6.72 3.54102 6.45 3.56102 6.19 3.60102C3.64 3.92102 2 5.82102 2 8.54102V15.541C2 18.301 4.24 20.541 7 20.541H16C18.8 20.541 20.73 18.791 20.97 16.121C21 15.831 20.76 15.591 20.47 15.591ZM13 9.79102H7C6.59 9.79102 6.25 9.45102 6.25 9.04102C6.25 8.63102 6.59 8.29102 7 8.29102H13C13.41 8.29102 13.75 8.63102 13.75 9.04102C13.75 9.45102 13.41 9.79102 13 9.79102Z" fill="#017189"/>
</svg>
